{
	"asset":{
		"generator":"Khronos glTF Blender I/O v3.5.30",
		"version":"2.0"
	},
	"scene":0,
	"scenes":[
		{
			"name":"Scene",
			"nodes":[
				2
			]
		}
	],
	"nodes":[
		{
			"name":"\u540e\u7f6e\u6444\u50cf\u5934\u4f4d\u7f6e",
			"rotation":[
				0.70710688829422,
				0,
				0,
				0.7071066498756409
			],
			"translation":[
				25.539453506469727,
				-62.593231201171875,
				4.365272521972656
			]
		},
		{
			"mesh":0,
			"name":"\u624b\u673a",
			"rotation":[
				-1,
				0,
				0,
				7.549790126404332e-08
			],
			"translation":[
				0,
				-0.6412991285324097,
				7.62939453125e-06
			]
		},
		{
			"children":[
				0,
				1
			],
			"name":"\u534e\u4e3a\u624b\u673a",
			"rotation":[
				1,
				0,
				0,
				1.6292068494294654e-07
			]
		}
	],
	"materials":[
		{
			"name":"\u624b\u673a_phong",
			"pbrMetallicRoughness":{}
		}
	],
	"meshes":[
		{
			"name":"\u624b\u673a",
			"primitives":[
				{
					"attributes":{
						"POSITION":0,
						"TEXCOORD_0":1,
						"NORMAL":2
					},
					"indices":3,
					"material":0
				}
			]
		}
	],
	"accessors":[
		{
			"bufferView":0,
			"componentType":5126,
			"count":42480,
			"max":[
				38.238929748535156,
				78.25062561035156,
				4.365270614624023
			],
			"min":[
				-38.238929748535156,
				-79.53321838378906,
				-4.365270614624023
			],
			"type":"VEC3"
		},
		{
			"bufferView":1,
			"componentType":5126,
			"count":42480,
			"type":"VEC2"
		},
		{
			"bufferView":2,
			"componentType":5126,
			"count":42480,
			"type":"VEC3"
		},
		{
			"bufferView":3,
			"componentType":5123,
			"count":42480,
			"type":"SCALAR"
		}
	],
	"bufferViews":[
		{
			"buffer":0,
			"byteLength":509760,
			"byteOffset":0,
			"target":34962
		},
		{
			"buffer":0,
			"byteLength":339840,
			"byteOffset":509760,
			"target":34962
		},
		{
			"buffer":0,
			"byteLength":509760,
			"byteOffset":849600,
			"target":34962
		},
		{
			"buffer":0,
			"byteLength":84960,
			"byteOffset":1359360,
			"target":34963
		}
	],
	"buffers":[
		{
			"byteLength":1444320,
			"uri":"data:application/octet-stream;base64,"
		}
	]
}
