<?xml version="1.0" standalone="no"?><!DOCTYPE svg PUBLIC "-//W3C//DTD SVG 1.1//EN" "http://www.w3.org/Graphics/SVG/1.1/DTD/svg11.dtd"><svg t="1734333635827" class="icon" viewBox="0 0 1468 1024" version="1.1" xmlns="http://www.w3.org/2000/svg" p-id="4839" xmlns:xlink="http://www.w3.org/1999/xlink" width="286.71875" height="200"><path d="M0 0h1468.631579v1024H0z" fill="#F1F8FF" p-id="4840"></path><path d="M847.764211 403.712H620.914526a29.884632 29.884632 0 0 0-29.850947 29.844211v155.216842a29.884632 29.884632 0 0 0 29.84421 29.84421h226.842948a29.884632 29.884632 0 0 0 29.84421-29.84421v-155.216842a29.884632 29.884632 0 0 0-29.84421-29.844211h0.013474z m-226.849685 11.937684h226.849685a17.926737 17.926737 0 0 1 17.879578 17.913263v153.384421l-48.747789-48.794947a29.877895 29.877895 0 0 0-42.213053 0l-27.499789 27.506526-69.295158-69.288421a29.877895 29.877895 0 0 0-42.206316 0l-32.673684 32.673685V433.556211a17.933474 17.933474 0 0 1 17.906526-17.92zM603.014737 588.773053v-42.846316l41.114947-41.114948a17.933474 17.933474 0 0 1 25.32379 0l101.874526 101.86779H620.907789a17.926737 17.926737 0 0 1-17.899789-17.906526z m244.75621 17.906526H788.210526l-32.586105-32.579368 27.49979-27.49979a17.933474 17.933474 0 0 1 25.330526 0l53.315368 53.308632a17.879579 17.879579 0 0 1-14.005894 6.770526z" fill="#C2BFBF" p-id="4841"></path><path d="M806.022737 493.621895a29.844211 29.844211 0 1 0-29.844211-29.857684v0.006736a29.844211 29.844211 0 0 0 29.844211 29.844211z m0-47.764211a17.906526 17.906526 0 1 1-17.906526 17.92v-0.006737a17.906526 17.906526 0 0 1 17.906526-17.906526z" fill="#C2BFBF" p-id="4842"></path></svg>